<?xml version="1.0" encoding="utf-8"?>
<!-- Generator: Adobe Illustrator 16.0.0, SVG Export Plug-In . SVG Version: 6.00 Build 0)  -->
<!DOCTYPE svg PUBLIC "-//W3C//DTD SVG 1.1//EN" "http://www.w3.org/Graphics/SVG/1.1/DTD/svg11.dtd">
<svg version="1.1" id="Layer_1" xmlns="http://www.w3.org/2000/svg" xmlns:xlink="http://www.w3.org/1999/xlink" x="0px" y="0px"
	 width="1200px" height="400px" viewBox="0 0 1200 400" enable-background="new 0 0 1200 400" xml:space="preserve">
<path fill="none" stroke="#000000" stroke-miterlimit="10" d="M595.833-0.167c-5.395,9.549-6.305,21.492-17.368,26.183
	c-12.025,5.099-16.836,6.757-21.987,19.918c-8.651,22.108-26.809,18.686-47.28,23.886c-14.125,3.588-24.15,10.951-34.437,20.902
	c-9.561,9.248-14.894,33.603,0.163,40.295c23.945,10.644,43.928-7.229,66.489-8.512c8.875-0.505,31.076,0.43,36.281,8.784
	c4.907,7.875-3.144,19.745-7.861,24.599c-8.416,8.661-16.471,12.819-26.532,18.118c-5.17,2.723-13.561,7.879-16.323,13.139
	c-6.345,12.083,3.047,27.197,10.686,35.999c3.984,4.592,6.778,5.715,5.321,12.747c-1.723,8.319-10.749,17.57-16.063,23.851
	c-5.345,6.317-11.916,11.491-18.896,15.585c-10.422,6.113-20.404,13.915-32.802,15.355c-9.449,1.097-21.767-2.312-30.704,0.603
	c-7.813,2.549-12.554,13.829-15.406,20.66c-9.954,23.842,4.917,43.66,29.535,49.98c15.326,3.935,39.625,6.846,55.008,2.061
	c17.976-5.593,34.3-13.455,53.424-15.881c7.214-0.915,23.33-4.071,30.028-0.034c5.084,3.063,6.187,11.897,6.866,17.095
	c1.172,8.97,0.453,14.414-4.144,22.073c-2.621,4.366-6.055,7.732-5.335,13.263"/>
</svg>
