<?xml version="1.0" encoding="utf-8"?>
<!-- Generator: Adobe Illustrator 16.0.0, SVG Export Plug-In . SVG Version: 6.00 Build 0)  -->
<!DOCTYPE svg PUBLIC "-//W3C//DTD SVG 1.1//EN" "http://www.w3.org/Graphics/SVG/1.1/DTD/svg11.dtd">
<svg version="1.1" id="Layer_1" xmlns="http://www.w3.org/2000/svg" xmlns:xlink="http://www.w3.org/1999/xlink" x="0px" y="0px"
	 width="1200px" height="400px" viewBox="0 0 1200 400" enable-background="new 0 0 1200 400" xml:space="preserve">
<path fill="none" stroke="#000000" stroke-miterlimit="10" d="M495.906,1.063c-0.691,14.015-6.168,37.854,6.603,47.699
	c17.612,13.577,47.587,8.551,68.539,8.551c17.395,0,33.974-3.302,43.273,14.726c7.548,14.633-3.519,20.379-17.616,22.62
	c-17.293,2.75-46.704-4.975-52.377,17.385c-10.695,42.153,54.615,44.84,81.146,45.929c51.09,2.096,104.454-7.369,149.499,22.413
	c10.323,6.825,20.479,14.379,25.223,26.053c4.641,11.418,8.544,31.28,4.629,43.491c-9.071,28.295-37.213,41.095-63.736,46.215
	c-20.036,3.867-41.785,3.528-62.278,2.457c-33.438-1.748-64.282-13.81-96.497-21.577c-27.231-6.566-52.978-6.43-80.771-6.43
	c-27.651,0-57.872-2.815-83.322,10.725c-13.661,7.269-30.371,27.882-25.628,44.547c4.036,14.18,27.166,20.325,40.036,23.657
	c15.313,3.965,30.919,5.446,46.821,5.446c16.696,0,41.65,0.589,49.834,18.75c3.427,7.604,2.376,18.668,4.123,26.563"/>
</svg>
