<?xml version="1.0" encoding="utf-8"?>
<!-- Generator: Adobe Illustrator 16.0.0, SVG Export Plug-In . SVG Version: 6.00 Build 0)  -->
<!DOCTYPE svg PUBLIC "-//W3C//DTD SVG 1.1//EN" "http://www.w3.org/Graphics/SVG/1.1/DTD/svg11.dtd">
<svg version="1.1" id="Layer_1" xmlns="http://www.w3.org/2000/svg" xmlns:xlink="http://www.w3.org/1999/xlink" x="0px" y="0px"
	 width="1200px" height="400px" viewBox="0 0 1200 400" enable-background="new 0 0 1200 400" xml:space="preserve">
<path fill="none" stroke="#000000" stroke-miterlimit="10" d="M597.469,1.063c0,24.116-15.903,43.801-40.82,43.75
	c-18.669-0.038-38.066-4.541-56.554-2.394c-21.663,2.516-39.772,18.999-41.704,40.613c-1.172,13.121,3.659,25.522,6.462,38.128
	c3.246,14.594,10.875,37.248,23.435,46.621c8.941,6.673,25.165,6.069,35.42,5.987c15.273-0.122,28.13-0.191,42.755-5.059
	c18.821-6.265,36.944-14.576,51.527-28.304c14.22-13.388,27.434-27.958,40.122-42.756c7.157-8.348,14.454-16.957,25.622-19.844
	c24.951-6.449,56.082,7.544,60.057,34.593c2.289,15.576-4.556,24.686-8.526,38.914c-2.734,9.803-1.276,20.297-3.164,30.265
	c-3.728,19.675-24.771,30.086-32.394,47.781c-3.136,7.279-0.703,14.11-2.245,21.537c-2.59,12.477-19.577,16.423-31.023,19.769
	c-20.934,6.12-46.838,2.274-68.5,2.274c-38.608,0-76.769-3.313-113.344,10.858c-8.904,3.45-16.714,8.722-24.645,13.872
	c-10.962,7.117-23.547,11.181-34.485,18.137c-5.68,3.612-13.597,8.448-15.515,14.738c-1.946,6.381-0.864,19.854,1.333,25.674
	c9.808,25.975,55.664,11.884,74.353,6.72c13.426-3.709,38.3-9.729,52.415-3.949c12.435,5.093,9.796,23.818,0.081,29.598
	c-7.591,4.515-17.018,6.771-25.645,7.813c-6.406,0.772-12.784,4.901-18.924,4.665"/>
</svg>
