<?xml version="1.0" encoding="utf-8"?>
<!-- Generator: Adobe Illustrator 16.0.0, SVG Export Plug-In . SVG Version: 6.00 Build 0)  -->
<!DOCTYPE svg PUBLIC "-//W3C//DTD SVG 1.1//EN" "http://www.w3.org/Graphics/SVG/1.1/DTD/svg11.dtd">
<svg version="1.1" id="Layer_1" xmlns="http://www.w3.org/2000/svg" xmlns:xlink="http://www.w3.org/1999/xlink" x="0px" y="0px"
	 width="1200px" height="400px" viewBox="0 0 1200 400" enable-background="new 0 0 1200 400" xml:space="preserve">
<path fill="none" stroke="#000000" stroke-miterlimit="10" d="M734.969,1.063c4.275,8.217-7.814,20.882-13.698,25.804
	c-6.45,5.395-14.158,7.958-22.436,9.375c-13.366,2.288-27.314,2.227-39.474,9.337c-7.521,4.398-13.86,11.284-19.863,17.51
	C629.459,73.5,622.272,76.87,608.114,79.19c-64.695,10.605-131.606-10.608-194.378,13.337c-14.122,5.387-24.587,16.425-37.42,24.359
	c-12.868,7.956-27.464,13.578-41.876,18.133c-7.291,2.304-16.048,3.563-21.935,8.847c-10.141,9.104-16.105,27.245-16.634,40.343
	c-0.434,10.738-3.479,25.938,7.092,32.13c12.875,7.542,38.789,6.354,52.407,1.584c18.103-6.343,34.325-16.606,52.117-23.759
	c13.731-5.52,24.25-9.463,38.791-3.11c10.685,4.669,18.536,13.189,20.604,25.043c3.164,18.127-9.038,29.633-14.741,45.101
	c-7.074,19.183,7.855,31.156,24.798,38.144c19.544,8.06,43.269,11.538,58.199,27.481c8.884,9.486,21.175,20.611,23.268,33.769
	c3.336,20.973-17.438,26.425-23.438,42.814"/>
</svg>
