<?xml version="1.0" encoding="utf-8"?>
<!-- Generator: Adobe Illustrator 16.0.0, SVG Export Plug-In . SVG Version: 6.00 Build 0)  -->
<!DOCTYPE svg PUBLIC "-//W3C//DTD SVG 1.1//EN" "http://www.w3.org/Graphics/SVG/1.1/DTD/svg11.dtd">
<svg version="1.1" id="Layer_1" xmlns="http://www.w3.org/2000/svg" xmlns:xlink="http://www.w3.org/1999/xlink" x="0px" y="0px"
	 width="1200px" height="400px" viewBox="0 0 1200 400" enable-background="new 0 0 1200 400" xml:space="preserve">
<path fill="none" stroke="#000000" stroke-miterlimit="10" d="M574.813-1.281c2.045,4.767,0.438,12.471,2.347,17.928
	c2.695,7.706,6.222,11.462,13.477,14.081c7.447,2.688,22.381,2.525,27.377,9.966c4.67,6.956,0.833,19.625-3.899,25.399
	c-16.55,20.194-46.17,20.348-69.242,26.338c-17.082,4.435-18.333,15.581-28.601,27.011c-13.673,15.223-28.493,18.665-36.826,39.056
	c-5.452,13.343-5.572,25.321,1.37,37.386c7.565,13.149,14.168,20.731,29.904,23.451c17.224,2.977,24.321,2.256,36.384-8.622
	c12.728-11.478,25.449-25.071,41.15-32.684c7.262-3.521,14.369-2.783,22.319-2.748c17.358,0.076,28.35,9.876,28.302,26.717
	c-0.022,7.901,0.224,14.785-2.518,22.302c-2.416,6.625-6.615,12.91-8.223,19.751c-3.347,14.244,1.587,22.286,14.285,29.742
	c19.255,11.305,49.015,1.368,70.021,0.689c17.55-0.567,36.177,8.219,45.028,24.488c10.619,19.517,1.492,46.746-8.874,63.662
	c-7.91,12.908-10.319,25.485-12.845,39.992"/>
</svg>
