<?xml version="1.0" encoding="utf-8"?>
<!-- Generator: Adobe Illustrator 16.0.0, SVG Export Plug-In . SVG Version: 6.00 Build 0)  -->
<!DOCTYPE svg PUBLIC "-//W3C//DTD SVG 1.1//EN" "http://www.w3.org/Graphics/SVG/1.1/DTD/svg11.dtd">
<svg version="1.1" id="Layer_1" xmlns="http://www.w3.org/2000/svg" xmlns:xlink="http://www.w3.org/1999/xlink" x="0px" y="0px"
	 width="1200px" height="400px" viewBox="0 0 1200 400" enable-background="new 0 0 1200 400" xml:space="preserve">
<path fill="none" stroke="#000000" stroke-miterlimit="10" d="M534.969,1.063c2.31,24.646-17.139,35.513-37.479,41.822
	c-12.749,3.954-25.396,5.62-33.426,17.132c-5.274,7.563-8.265,15.299-16.167,21.162c-11.018,8.174-24.688,6.637-36.351,12.81
	c-14.88,7.875-29.533,27.778-24.171,45.572c3.409,11.316,18.861,20.109,29.252,23.069c19.43,5.535,51.196,4.538,69.97-2.167
	c27.544-9.838,58.191-7.942,86.925-12.494c17.262-2.735,19.792-14.591,31.721-24.512c16.539-13.756,51.061-16.26,71.479-14.627
	c13.918,1.113,23.248,7.945,30.742,19.444c4.625,7.095,5.595,14.856,14.367,17.792c9.913,3.317,26.692,0.624,36.909,0.014
	c16.731-0.999,34.659-2.585,51.086-6.087c15.148-3.23,28.687-12.482,43.636-15.568c19.246-3.974,40.641-2.388,55.98,9.941
	c17.648,14.185,32.783,32.411,38.813,54.28c3.052,11.071,4.236,19.678-2.608,29.29c-9.484,13.32-23.557,20.443-34.149,32.48
	c-8.983,10.208-13.012,23.816-23.798,32.735c-18.634,15.409-48.897,13.239-71.399,13.225c-10.702-0.007-21.971-0.924-32.52,1.308
	c-14.963,3.166-31.326,11.655-45.136,18.382c-11.868,5.781-22.613,15.282-35.652,18.437c-12.075,2.92-21.513,3.791-33.104,9.165
	c-13.385,6.205-28.786,14.912-37.279,27.124c-6.298,9.057-11.055,11.611-21.341,15.661c-10.385,4.089-9.13,10.497-15.362,18.518"/>
</svg>
